<mxfile host="app.diagrams.net" agent="Mozilla/5.0 (Windows NT 10.0; Win64; x64) AppleWebKit/537.36 (KHTML, like Gecko) Chrome/127.0.0.0 Safari/537.36" version="24.7.6">
  <diagram name="Page-1" id="WsgISvzW12_MeIjZwdXc">
    <mxGraphModel dx="5185" dy="3845" grid="1" gridSize="10" guides="1" tooltips="1" connect="1" arrows="1" fold="1" page="1" pageScale="1" pageWidth="850" pageHeight="1100" math="0" shadow="0">
      <root>
        <mxCell id="0" />
        <mxCell id="1" parent="0" />
        <mxCell id="YAn88tCK4NmPO2DsNNYp-1" value="" style="rounded=0;whiteSpace=wrap;html=1;fillColor=#ffe6cc;strokeColor=#d79b00;" parent="1" vertex="1">
          <mxGeometry x="40" y="320" width="80" height="80" as="geometry" />
        </mxCell>
        <mxCell id="YAn88tCK4NmPO2DsNNYp-2" value="" style="rounded=0;whiteSpace=wrap;html=1;fillColor=#ffe6cc;strokeColor=#d79b00;" parent="1" vertex="1">
          <mxGeometry x="120" y="320" width="80" height="80" as="geometry" />
        </mxCell>
        <mxCell id="YAn88tCK4NmPO2DsNNYp-3" value="" style="rounded=0;whiteSpace=wrap;html=1;fillColor=#ffe6cc;strokeColor=#d79b00;" parent="1" vertex="1">
          <mxGeometry x="40" y="400" width="80" height="80" as="geometry" />
        </mxCell>
        <mxCell id="YAn88tCK4NmPO2DsNNYp-4" value="" style="rounded=0;whiteSpace=wrap;html=1;fillColor=#ffe6cc;strokeColor=#d79b00;" parent="1" vertex="1">
          <mxGeometry x="120" y="400" width="80" height="80" as="geometry" />
        </mxCell>
        <mxCell id="YAn88tCK4NmPO2DsNNYp-5" value="" style="rounded=0;whiteSpace=wrap;html=1;fillColor=#ffe6cc;strokeColor=#d79b00;" parent="1" vertex="1">
          <mxGeometry x="200" y="320" width="80" height="80" as="geometry" />
        </mxCell>
        <mxCell id="YAn88tCK4NmPO2DsNNYp-6" value="" style="rounded=0;whiteSpace=wrap;html=1;fillColor=#ffe6cc;strokeColor=#d79b00;" parent="1" vertex="1">
          <mxGeometry x="280" y="320" width="80" height="80" as="geometry" />
        </mxCell>
        <mxCell id="YAn88tCK4NmPO2DsNNYp-7" value="" style="rounded=0;whiteSpace=wrap;html=1;fillColor=#ffe6cc;strokeColor=#d79b00;" parent="1" vertex="1">
          <mxGeometry x="200" y="400" width="80" height="80" as="geometry" />
        </mxCell>
        <mxCell id="YAn88tCK4NmPO2DsNNYp-8" value="" style="rounded=0;whiteSpace=wrap;html=1;fillColor=#ffe6cc;strokeColor=#d79b00;" parent="1" vertex="1">
          <mxGeometry x="280" y="400" width="80" height="80" as="geometry" />
        </mxCell>
        <mxCell id="YAn88tCK4NmPO2DsNNYp-9" value="" style="rounded=0;whiteSpace=wrap;html=1;fillColor=#ffe6cc;strokeColor=#d79b00;" parent="1" vertex="1">
          <mxGeometry x="40" y="480" width="80" height="80" as="geometry" />
        </mxCell>
        <mxCell id="YAn88tCK4NmPO2DsNNYp-10" value="" style="rounded=0;whiteSpace=wrap;html=1;fillColor=#ffe6cc;strokeColor=#d79b00;" parent="1" vertex="1">
          <mxGeometry x="120" y="480" width="80" height="80" as="geometry" />
        </mxCell>
        <mxCell id="YAn88tCK4NmPO2DsNNYp-11" value="" style="rounded=0;whiteSpace=wrap;html=1;fillColor=#ffe6cc;strokeColor=#d79b00;" parent="1" vertex="1">
          <mxGeometry x="40" y="560" width="80" height="80" as="geometry" />
        </mxCell>
        <mxCell id="YAn88tCK4NmPO2DsNNYp-12" value="" style="rounded=0;whiteSpace=wrap;html=1;fillColor=#ffe6cc;strokeColor=#d79b00;" parent="1" vertex="1">
          <mxGeometry x="120" y="560" width="80" height="80" as="geometry" />
        </mxCell>
        <mxCell id="YAn88tCK4NmPO2DsNNYp-13" value="" style="rounded=0;whiteSpace=wrap;html=1;fillColor=#ffe6cc;strokeColor=#d79b00;" parent="1" vertex="1">
          <mxGeometry x="200" y="480" width="80" height="80" as="geometry" />
        </mxCell>
        <mxCell id="YAn88tCK4NmPO2DsNNYp-14" value="" style="rounded=0;whiteSpace=wrap;html=1;fillColor=#ffe6cc;strokeColor=#d79b00;" parent="1" vertex="1">
          <mxGeometry x="280" y="480" width="80" height="80" as="geometry" />
        </mxCell>
        <mxCell id="YAn88tCK4NmPO2DsNNYp-15" value="" style="rounded=0;whiteSpace=wrap;html=1;fillColor=#ffe6cc;strokeColor=#d79b00;" parent="1" vertex="1">
          <mxGeometry x="200" y="560" width="80" height="80" as="geometry" />
        </mxCell>
        <mxCell id="YAn88tCK4NmPO2DsNNYp-16" value="" style="rounded=0;whiteSpace=wrap;html=1;fillColor=#ffe6cc;strokeColor=#d79b00;" parent="1" vertex="1">
          <mxGeometry x="280" y="560" width="80" height="80" as="geometry" />
        </mxCell>
        <mxCell id="YAn88tCK4NmPO2DsNNYp-17" value="" style="rounded=0;whiteSpace=wrap;html=1;fillColor=#ffe6cc;strokeColor=#d79b00;" parent="1" vertex="1">
          <mxGeometry x="360" y="320" width="80" height="80" as="geometry" />
        </mxCell>
        <mxCell id="YAn88tCK4NmPO2DsNNYp-18" value="" style="rounded=0;whiteSpace=wrap;html=1;fillColor=#ffe6cc;strokeColor=#d79b00;" parent="1" vertex="1">
          <mxGeometry x="440" y="320" width="80" height="80" as="geometry" />
        </mxCell>
        <mxCell id="YAn88tCK4NmPO2DsNNYp-19" value="" style="rounded=0;whiteSpace=wrap;html=1;fillColor=#ffe6cc;strokeColor=#d79b00;" parent="1" vertex="1">
          <mxGeometry x="360" y="400" width="80" height="80" as="geometry" />
        </mxCell>
        <mxCell id="YAn88tCK4NmPO2DsNNYp-20" value="" style="rounded=0;whiteSpace=wrap;html=1;fillColor=#ffe6cc;strokeColor=#d79b00;" parent="1" vertex="1">
          <mxGeometry x="440" y="400" width="80" height="80" as="geometry" />
        </mxCell>
        <mxCell id="YAn88tCK4NmPO2DsNNYp-21" value="" style="rounded=0;whiteSpace=wrap;html=1;fillColor=#ffe6cc;strokeColor=#d79b00;" parent="1" vertex="1">
          <mxGeometry x="520" y="320" width="80" height="80" as="geometry" />
        </mxCell>
        <mxCell id="YAn88tCK4NmPO2DsNNYp-22" value="" style="rounded=0;whiteSpace=wrap;html=1;fillColor=#ffe6cc;strokeColor=#d79b00;" parent="1" vertex="1">
          <mxGeometry x="600" y="320" width="80" height="80" as="geometry" />
        </mxCell>
        <mxCell id="YAn88tCK4NmPO2DsNNYp-23" value="" style="rounded=0;whiteSpace=wrap;html=1;fillColor=#ffe6cc;strokeColor=#d79b00;" parent="1" vertex="1">
          <mxGeometry x="520" y="400" width="80" height="80" as="geometry" />
        </mxCell>
        <mxCell id="YAn88tCK4NmPO2DsNNYp-24" value="" style="rounded=0;whiteSpace=wrap;html=1;fillColor=#ffe6cc;strokeColor=#d79b00;" parent="1" vertex="1">
          <mxGeometry x="600" y="400" width="80" height="80" as="geometry" />
        </mxCell>
        <mxCell id="YAn88tCK4NmPO2DsNNYp-25" value="" style="rounded=0;whiteSpace=wrap;html=1;fillColor=#ffe6cc;strokeColor=#d79b00;" parent="1" vertex="1">
          <mxGeometry x="360" y="480" width="80" height="80" as="geometry" />
        </mxCell>
        <mxCell id="YAn88tCK4NmPO2DsNNYp-26" value="" style="rounded=0;whiteSpace=wrap;html=1;fillColor=#ffe6cc;strokeColor=#d79b00;" parent="1" vertex="1">
          <mxGeometry x="440" y="480" width="80" height="80" as="geometry" />
        </mxCell>
        <mxCell id="YAn88tCK4NmPO2DsNNYp-27" value="" style="rounded=0;whiteSpace=wrap;html=1;fillColor=#ffe6cc;strokeColor=#d79b00;" parent="1" vertex="1">
          <mxGeometry x="360" y="560" width="80" height="80" as="geometry" />
        </mxCell>
        <mxCell id="YAn88tCK4NmPO2DsNNYp-28" value="" style="rounded=0;whiteSpace=wrap;html=1;fillColor=#ffe6cc;strokeColor=#d79b00;" parent="1" vertex="1">
          <mxGeometry x="440" y="560" width="80" height="80" as="geometry" />
        </mxCell>
        <mxCell id="YAn88tCK4NmPO2DsNNYp-29" value="" style="rounded=0;whiteSpace=wrap;html=1;fillColor=#ffe6cc;strokeColor=#d79b00;" parent="1" vertex="1">
          <mxGeometry x="520" y="480" width="80" height="80" as="geometry" />
        </mxCell>
        <mxCell id="YAn88tCK4NmPO2DsNNYp-30" value="" style="rounded=0;whiteSpace=wrap;html=1;fillColor=#ffe6cc;strokeColor=#d79b00;" parent="1" vertex="1">
          <mxGeometry x="600" y="480" width="80" height="80" as="geometry" />
        </mxCell>
        <mxCell id="YAn88tCK4NmPO2DsNNYp-31" value="" style="rounded=0;whiteSpace=wrap;html=1;fillColor=#ffe6cc;strokeColor=#d79b00;" parent="1" vertex="1">
          <mxGeometry x="520" y="560" width="80" height="80" as="geometry" />
        </mxCell>
        <mxCell id="YAn88tCK4NmPO2DsNNYp-32" value="" style="rounded=0;whiteSpace=wrap;html=1;fillColor=#ffe6cc;strokeColor=#d79b00;" parent="1" vertex="1">
          <mxGeometry x="600" y="560" width="80" height="80" as="geometry" />
        </mxCell>
        <mxCell id="YAn88tCK4NmPO2DsNNYp-33" value="" style="rounded=0;whiteSpace=wrap;html=1;fillColor=#ffe6cc;strokeColor=#d79b00;" parent="1" vertex="1">
          <mxGeometry x="880" y="320" width="80" height="80" as="geometry" />
        </mxCell>
        <mxCell id="YAn88tCK4NmPO2DsNNYp-34" value="" style="rounded=0;whiteSpace=wrap;html=1;fillColor=#ffe6cc;strokeColor=#d79b00;" parent="1" vertex="1">
          <mxGeometry x="960" y="320" width="80" height="80" as="geometry" />
        </mxCell>
        <mxCell id="YAn88tCK4NmPO2DsNNYp-35" value="" style="rounded=0;whiteSpace=wrap;html=1;fillColor=#ffe6cc;strokeColor=#d79b00;" parent="1" vertex="1">
          <mxGeometry x="880" y="400" width="80" height="80" as="geometry" />
        </mxCell>
        <mxCell id="YAn88tCK4NmPO2DsNNYp-36" value="" style="rounded=0;whiteSpace=wrap;html=1;fillColor=#ffe6cc;strokeColor=#d79b00;" parent="1" vertex="1">
          <mxGeometry x="960" y="400" width="80" height="80" as="geometry" />
        </mxCell>
        <mxCell id="YAn88tCK4NmPO2DsNNYp-37" value="" style="rounded=0;whiteSpace=wrap;html=1;fillColor=#ffe6cc;strokeColor=#d79b00;" parent="1" vertex="1">
          <mxGeometry x="1040" y="320" width="80" height="80" as="geometry" />
        </mxCell>
        <mxCell id="YAn88tCK4NmPO2DsNNYp-38" value="" style="rounded=0;whiteSpace=wrap;html=1;fillColor=#ffe6cc;strokeColor=#d79b00;" parent="1" vertex="1">
          <mxGeometry x="1120" y="320" width="80" height="80" as="geometry" />
        </mxCell>
        <mxCell id="YAn88tCK4NmPO2DsNNYp-39" value="" style="rounded=0;whiteSpace=wrap;html=1;fillColor=#ffe6cc;strokeColor=#d79b00;" parent="1" vertex="1">
          <mxGeometry x="1040" y="400" width="80" height="80" as="geometry" />
        </mxCell>
        <mxCell id="YAn88tCK4NmPO2DsNNYp-40" value="" style="rounded=0;whiteSpace=wrap;html=1;fillColor=#ffe6cc;strokeColor=#d79b00;" parent="1" vertex="1">
          <mxGeometry x="1120" y="400" width="80" height="80" as="geometry" />
        </mxCell>
        <mxCell id="YAn88tCK4NmPO2DsNNYp-41" value="" style="rounded=0;whiteSpace=wrap;html=1;fillColor=#ffe6cc;strokeColor=#d79b00;" parent="1" vertex="1">
          <mxGeometry x="880" y="480" width="80" height="80" as="geometry" />
        </mxCell>
        <mxCell id="YAn88tCK4NmPO2DsNNYp-42" value="" style="rounded=0;whiteSpace=wrap;html=1;fillColor=#ffe6cc;strokeColor=#d79b00;" parent="1" vertex="1">
          <mxGeometry x="960" y="480" width="80" height="80" as="geometry" />
        </mxCell>
        <mxCell id="YAn88tCK4NmPO2DsNNYp-43" value="" style="rounded=0;whiteSpace=wrap;html=1;fillColor=#ffe6cc;strokeColor=#d79b00;" parent="1" vertex="1">
          <mxGeometry x="880" y="560" width="80" height="80" as="geometry" />
        </mxCell>
        <mxCell id="YAn88tCK4NmPO2DsNNYp-44" value="" style="rounded=0;whiteSpace=wrap;html=1;fillColor=#ffe6cc;strokeColor=#d79b00;" parent="1" vertex="1">
          <mxGeometry x="960" y="560" width="80" height="80" as="geometry" />
        </mxCell>
        <mxCell id="YAn88tCK4NmPO2DsNNYp-45" value="" style="rounded=0;whiteSpace=wrap;html=1;fillColor=#ffe6cc;strokeColor=#d79b00;" parent="1" vertex="1">
          <mxGeometry x="1040" y="480" width="80" height="80" as="geometry" />
        </mxCell>
        <mxCell id="YAn88tCK4NmPO2DsNNYp-46" value="" style="rounded=0;whiteSpace=wrap;html=1;fillColor=#ffe6cc;strokeColor=#d79b00;" parent="1" vertex="1">
          <mxGeometry x="1120" y="480" width="80" height="80" as="geometry" />
        </mxCell>
        <mxCell id="YAn88tCK4NmPO2DsNNYp-47" value="" style="rounded=0;whiteSpace=wrap;html=1;fillColor=#ffe6cc;strokeColor=#d79b00;" parent="1" vertex="1">
          <mxGeometry x="1040" y="560" width="80" height="80" as="geometry" />
        </mxCell>
        <mxCell id="YAn88tCK4NmPO2DsNNYp-48" value="" style="rounded=0;whiteSpace=wrap;html=1;fillColor=#ffe6cc;strokeColor=#d79b00;" parent="1" vertex="1">
          <mxGeometry x="1120" y="560" width="80" height="80" as="geometry" />
        </mxCell>
        <mxCell id="YAn88tCK4NmPO2DsNNYp-49" value="" style="rounded=0;whiteSpace=wrap;html=1;fillColor=#ffe6cc;strokeColor=#d79b00;" parent="1" vertex="1">
          <mxGeometry x="1200" y="320" width="80" height="80" as="geometry" />
        </mxCell>
        <mxCell id="YAn88tCK4NmPO2DsNNYp-50" value="" style="rounded=0;whiteSpace=wrap;html=1;fillColor=#ffe6cc;strokeColor=#d79b00;" parent="1" vertex="1">
          <mxGeometry x="1280" y="320" width="80" height="80" as="geometry" />
        </mxCell>
        <mxCell id="YAn88tCK4NmPO2DsNNYp-51" value="" style="rounded=0;whiteSpace=wrap;html=1;fillColor=#ffe6cc;strokeColor=#d79b00;" parent="1" vertex="1">
          <mxGeometry x="1200" y="400" width="80" height="80" as="geometry" />
        </mxCell>
        <mxCell id="YAn88tCK4NmPO2DsNNYp-52" value="" style="rounded=0;whiteSpace=wrap;html=1;fillColor=#ffe6cc;strokeColor=#d79b00;" parent="1" vertex="1">
          <mxGeometry x="1280" y="400" width="80" height="80" as="geometry" />
        </mxCell>
        <mxCell id="YAn88tCK4NmPO2DsNNYp-53" value="" style="rounded=0;whiteSpace=wrap;html=1;fillColor=#ffe6cc;strokeColor=#d79b00;" parent="1" vertex="1">
          <mxGeometry x="1360" y="320" width="80" height="80" as="geometry" />
        </mxCell>
        <mxCell id="YAn88tCK4NmPO2DsNNYp-54" value="" style="rounded=0;whiteSpace=wrap;html=1;fillColor=#ffe6cc;strokeColor=#d79b00;" parent="1" vertex="1">
          <mxGeometry x="1440" y="320" width="80" height="80" as="geometry" />
        </mxCell>
        <mxCell id="YAn88tCK4NmPO2DsNNYp-55" value="" style="rounded=0;whiteSpace=wrap;html=1;fillColor=#ffe6cc;strokeColor=#d79b00;" parent="1" vertex="1">
          <mxGeometry x="1360" y="400" width="80" height="80" as="geometry" />
        </mxCell>
        <mxCell id="YAn88tCK4NmPO2DsNNYp-56" value="" style="rounded=0;whiteSpace=wrap;html=1;fillColor=#ffe6cc;strokeColor=#d79b00;" parent="1" vertex="1">
          <mxGeometry x="1440" y="400" width="80" height="80" as="geometry" />
        </mxCell>
        <mxCell id="YAn88tCK4NmPO2DsNNYp-57" value="" style="rounded=0;whiteSpace=wrap;html=1;fillColor=#ffe6cc;strokeColor=#d79b00;" parent="1" vertex="1">
          <mxGeometry x="1200" y="480" width="80" height="80" as="geometry" />
        </mxCell>
        <mxCell id="YAn88tCK4NmPO2DsNNYp-58" value="" style="rounded=0;whiteSpace=wrap;html=1;fillColor=#ffe6cc;strokeColor=#d79b00;" parent="1" vertex="1">
          <mxGeometry x="1280" y="480" width="80" height="80" as="geometry" />
        </mxCell>
        <mxCell id="YAn88tCK4NmPO2DsNNYp-59" value="" style="rounded=0;whiteSpace=wrap;html=1;fillColor=#ffe6cc;strokeColor=#d79b00;" parent="1" vertex="1">
          <mxGeometry x="1200" y="560" width="80" height="80" as="geometry" />
        </mxCell>
        <mxCell id="YAn88tCK4NmPO2DsNNYp-60" value="" style="rounded=0;whiteSpace=wrap;html=1;fillColor=#ffe6cc;strokeColor=#d79b00;" parent="1" vertex="1">
          <mxGeometry x="1280" y="560" width="80" height="80" as="geometry" />
        </mxCell>
        <mxCell id="YAn88tCK4NmPO2DsNNYp-61" value="" style="rounded=0;whiteSpace=wrap;html=1;fillColor=#ffe6cc;strokeColor=#d79b00;" parent="1" vertex="1">
          <mxGeometry x="1360" y="480" width="80" height="80" as="geometry" />
        </mxCell>
        <mxCell id="YAn88tCK4NmPO2DsNNYp-62" value="" style="rounded=0;whiteSpace=wrap;html=1;fillColor=#ffe6cc;strokeColor=#d79b00;" parent="1" vertex="1">
          <mxGeometry x="1440" y="480" width="80" height="80" as="geometry" />
        </mxCell>
        <mxCell id="YAn88tCK4NmPO2DsNNYp-63" value="" style="rounded=0;whiteSpace=wrap;html=1;fillColor=#ffe6cc;strokeColor=#d79b00;" parent="1" vertex="1">
          <mxGeometry x="1360" y="560" width="80" height="80" as="geometry" />
        </mxCell>
        <mxCell id="YAn88tCK4NmPO2DsNNYp-64" value="" style="rounded=0;whiteSpace=wrap;html=1;fillColor=#ffe6cc;strokeColor=#d79b00;" parent="1" vertex="1">
          <mxGeometry x="1440" y="560" width="80" height="80" as="geometry" />
        </mxCell>
        <mxCell id="YAn88tCK4NmPO2DsNNYp-65" value="" style="endArrow=none;dashed=1;html=1;rounded=0;strokeWidth=6;dashPattern=1 4;fillColor=#ffe6cc;strokeColor=#d79b00;" parent="1" edge="1">
          <mxGeometry width="50" height="50" relative="1" as="geometry">
            <mxPoint x="720" y="480" as="sourcePoint" />
            <mxPoint x="840" y="480" as="targetPoint" />
          </mxGeometry>
        </mxCell>
        <mxCell id="YAn88tCK4NmPO2DsNNYp-66" value="" style="rounded=0;whiteSpace=wrap;html=1;fillColor=#dae8fc;strokeColor=#6c8ebf;" parent="1" vertex="1">
          <mxGeometry x="1720" y="-240" width="80" height="80" as="geometry" />
        </mxCell>
        <mxCell id="YAn88tCK4NmPO2DsNNYp-67" value="" style="rounded=0;whiteSpace=wrap;html=1;fillColor=#dae8fc;strokeColor=#6c8ebf;" parent="1" vertex="1">
          <mxGeometry x="1800" y="-240" width="80" height="80" as="geometry" />
        </mxCell>
        <mxCell id="YAn88tCK4NmPO2DsNNYp-68" value="" style="rounded=0;whiteSpace=wrap;html=1;fillColor=#dae8fc;strokeColor=#6c8ebf;" parent="1" vertex="1">
          <mxGeometry x="1720" y="-160" width="80" height="80" as="geometry" />
        </mxCell>
        <mxCell id="YAn88tCK4NmPO2DsNNYp-69" value="" style="rounded=0;whiteSpace=wrap;html=1;fillColor=#dae8fc;strokeColor=#6c8ebf;" parent="1" vertex="1">
          <mxGeometry x="1800" y="-160" width="80" height="80" as="geometry" />
        </mxCell>
        <mxCell id="YAn88tCK4NmPO2DsNNYp-70" value="" style="rounded=0;whiteSpace=wrap;html=1;fillColor=#dae8fc;strokeColor=#6c8ebf;" parent="1" vertex="1">
          <mxGeometry x="1880" y="-240" width="80" height="80" as="geometry" />
        </mxCell>
        <mxCell id="YAn88tCK4NmPO2DsNNYp-71" value="" style="rounded=0;whiteSpace=wrap;html=1;fillColor=#dae8fc;strokeColor=#6c8ebf;" parent="1" vertex="1">
          <mxGeometry x="1960" y="-240" width="80" height="80" as="geometry" />
        </mxCell>
        <mxCell id="YAn88tCK4NmPO2DsNNYp-72" value="" style="rounded=0;whiteSpace=wrap;html=1;fillColor=#dae8fc;strokeColor=#6c8ebf;" parent="1" vertex="1">
          <mxGeometry x="1880" y="-160" width="80" height="80" as="geometry" />
        </mxCell>
        <mxCell id="YAn88tCK4NmPO2DsNNYp-73" value="" style="rounded=0;whiteSpace=wrap;html=1;fillColor=#dae8fc;strokeColor=#6c8ebf;" parent="1" vertex="1">
          <mxGeometry x="1960" y="-160" width="80" height="80" as="geometry" />
        </mxCell>
        <mxCell id="YAn88tCK4NmPO2DsNNYp-74" value="" style="rounded=0;whiteSpace=wrap;html=1;fillColor=#dae8fc;strokeColor=#6c8ebf;" parent="1" vertex="1">
          <mxGeometry x="1720" y="-80" width="80" height="80" as="geometry" />
        </mxCell>
        <mxCell id="YAn88tCK4NmPO2DsNNYp-75" value="" style="rounded=0;whiteSpace=wrap;html=1;fillColor=#dae8fc;strokeColor=#6c8ebf;" parent="1" vertex="1">
          <mxGeometry x="1800" y="-80" width="80" height="80" as="geometry" />
        </mxCell>
        <mxCell id="YAn88tCK4NmPO2DsNNYp-76" value="" style="rounded=0;whiteSpace=wrap;html=1;fillColor=#dae8fc;strokeColor=#6c8ebf;" parent="1" vertex="1">
          <mxGeometry x="1720" width="80" height="80" as="geometry" />
        </mxCell>
        <mxCell id="YAn88tCK4NmPO2DsNNYp-77" value="" style="rounded=0;whiteSpace=wrap;html=1;fillColor=#dae8fc;strokeColor=#6c8ebf;" parent="1" vertex="1">
          <mxGeometry x="1800" width="80" height="80" as="geometry" />
        </mxCell>
        <mxCell id="YAn88tCK4NmPO2DsNNYp-78" value="" style="rounded=0;whiteSpace=wrap;html=1;fillColor=#dae8fc;strokeColor=#6c8ebf;" parent="1" vertex="1">
          <mxGeometry x="1880" y="-80" width="80" height="80" as="geometry" />
        </mxCell>
        <mxCell id="YAn88tCK4NmPO2DsNNYp-79" value="" style="rounded=0;whiteSpace=wrap;html=1;fillColor=#dae8fc;strokeColor=#6c8ebf;" parent="1" vertex="1">
          <mxGeometry x="1960" y="-80" width="80" height="80" as="geometry" />
        </mxCell>
        <mxCell id="YAn88tCK4NmPO2DsNNYp-80" value="" style="rounded=0;whiteSpace=wrap;html=1;fillColor=#dae8fc;strokeColor=#6c8ebf;" parent="1" vertex="1">
          <mxGeometry x="1880" width="80" height="80" as="geometry" />
        </mxCell>
        <mxCell id="YAn88tCK4NmPO2DsNNYp-81" value="" style="rounded=0;whiteSpace=wrap;html=1;fillColor=#dae8fc;strokeColor=#6c8ebf;" parent="1" vertex="1">
          <mxGeometry x="1960" width="80" height="80" as="geometry" />
        </mxCell>
        <mxCell id="YAn88tCK4NmPO2DsNNYp-82" value="" style="rounded=0;whiteSpace=wrap;html=1;fillColor=#dae8fc;strokeColor=#6c8ebf;" parent="1" vertex="1">
          <mxGeometry x="2200" y="-240" width="80" height="80" as="geometry" />
        </mxCell>
        <mxCell id="YAn88tCK4NmPO2DsNNYp-83" value="" style="rounded=0;whiteSpace=wrap;html=1;fillColor=#dae8fc;strokeColor=#6c8ebf;" parent="1" vertex="1">
          <mxGeometry x="2280" y="-240" width="80" height="80" as="geometry" />
        </mxCell>
        <mxCell id="YAn88tCK4NmPO2DsNNYp-84" value="" style="rounded=0;whiteSpace=wrap;html=1;fillColor=#dae8fc;strokeColor=#6c8ebf;" parent="1" vertex="1">
          <mxGeometry x="2200" y="-160" width="80" height="80" as="geometry" />
        </mxCell>
        <mxCell id="YAn88tCK4NmPO2DsNNYp-85" value="" style="rounded=0;whiteSpace=wrap;html=1;fillColor=#dae8fc;strokeColor=#6c8ebf;" parent="1" vertex="1">
          <mxGeometry x="2280" y="-160" width="80" height="80" as="geometry" />
        </mxCell>
        <mxCell id="YAn88tCK4NmPO2DsNNYp-86" value="" style="rounded=0;whiteSpace=wrap;html=1;fillColor=#dae8fc;strokeColor=#6c8ebf;" parent="1" vertex="1">
          <mxGeometry x="2360" y="-240" width="80" height="80" as="geometry" />
        </mxCell>
        <mxCell id="YAn88tCK4NmPO2DsNNYp-87" value="" style="rounded=0;whiteSpace=wrap;html=1;fillColor=#dae8fc;strokeColor=#6c8ebf;" parent="1" vertex="1">
          <mxGeometry x="2440" y="-240" width="80" height="80" as="geometry" />
        </mxCell>
        <mxCell id="YAn88tCK4NmPO2DsNNYp-88" value="" style="rounded=0;whiteSpace=wrap;html=1;fillColor=#dae8fc;strokeColor=#6c8ebf;" parent="1" vertex="1">
          <mxGeometry x="2360" y="-160" width="80" height="80" as="geometry" />
        </mxCell>
        <mxCell id="YAn88tCK4NmPO2DsNNYp-89" value="" style="rounded=0;whiteSpace=wrap;html=1;fillColor=#dae8fc;strokeColor=#6c8ebf;" parent="1" vertex="1">
          <mxGeometry x="2440" y="-160" width="80" height="80" as="geometry" />
        </mxCell>
        <mxCell id="YAn88tCK4NmPO2DsNNYp-90" value="" style="rounded=0;whiteSpace=wrap;html=1;fillColor=#dae8fc;strokeColor=#6c8ebf;" parent="1" vertex="1">
          <mxGeometry x="2200" y="-80" width="80" height="80" as="geometry" />
        </mxCell>
        <mxCell id="YAn88tCK4NmPO2DsNNYp-91" value="" style="rounded=0;whiteSpace=wrap;html=1;fillColor=#dae8fc;strokeColor=#6c8ebf;" parent="1" vertex="1">
          <mxGeometry x="2280" y="-80" width="80" height="80" as="geometry" />
        </mxCell>
        <mxCell id="YAn88tCK4NmPO2DsNNYp-92" value="" style="rounded=0;whiteSpace=wrap;html=1;fillColor=#dae8fc;strokeColor=#6c8ebf;" parent="1" vertex="1">
          <mxGeometry x="2200" width="80" height="80" as="geometry" />
        </mxCell>
        <mxCell id="YAn88tCK4NmPO2DsNNYp-93" value="" style="rounded=0;whiteSpace=wrap;html=1;fillColor=#dae8fc;strokeColor=#6c8ebf;" parent="1" vertex="1">
          <mxGeometry x="2280" width="80" height="80" as="geometry" />
        </mxCell>
        <mxCell id="YAn88tCK4NmPO2DsNNYp-94" value="" style="rounded=0;whiteSpace=wrap;html=1;fillColor=#dae8fc;strokeColor=#6c8ebf;" parent="1" vertex="1">
          <mxGeometry x="2360" y="-80" width="80" height="80" as="geometry" />
        </mxCell>
        <mxCell id="YAn88tCK4NmPO2DsNNYp-95" value="" style="rounded=0;whiteSpace=wrap;html=1;fillColor=#dae8fc;strokeColor=#6c8ebf;" parent="1" vertex="1">
          <mxGeometry x="2440" y="-80" width="80" height="80" as="geometry" />
        </mxCell>
        <mxCell id="YAn88tCK4NmPO2DsNNYp-96" value="" style="rounded=0;whiteSpace=wrap;html=1;fillColor=#dae8fc;strokeColor=#6c8ebf;" parent="1" vertex="1">
          <mxGeometry x="2360" width="80" height="80" as="geometry" />
        </mxCell>
        <mxCell id="YAn88tCK4NmPO2DsNNYp-97" value="" style="rounded=0;whiteSpace=wrap;html=1;fillColor=#dae8fc;strokeColor=#6c8ebf;" parent="1" vertex="1">
          <mxGeometry x="2440" width="80" height="80" as="geometry" />
        </mxCell>
        <mxCell id="YAn88tCK4NmPO2DsNNYp-98" value="" style="endArrow=none;dashed=1;html=1;rounded=0;strokeWidth=6;dashPattern=1 4;fillColor=#dae8fc;strokeColor=#6c8ebf;" parent="1" edge="1">
          <mxGeometry width="50" height="50" relative="1" as="geometry">
            <mxPoint x="2065" y="-81.04999999999995" as="sourcePoint" />
            <mxPoint x="2185" y="-81.04999999999995" as="targetPoint" />
          </mxGeometry>
        </mxCell>
        <mxCell id="YAn88tCK4NmPO2DsNNYp-99" value="" style="rounded=0;whiteSpace=wrap;html=1;fillColor=#ffe6cc;strokeColor=#d79b00;" parent="1" vertex="1">
          <mxGeometry x="40" y="760" width="80" height="80" as="geometry" />
        </mxCell>
        <mxCell id="YAn88tCK4NmPO2DsNNYp-100" value="" style="rounded=0;whiteSpace=wrap;html=1;fillColor=#ffe6cc;strokeColor=#d79b00;" parent="1" vertex="1">
          <mxGeometry x="120" y="760" width="80" height="80" as="geometry" />
        </mxCell>
        <mxCell id="YAn88tCK4NmPO2DsNNYp-101" value="" style="rounded=0;whiteSpace=wrap;html=1;fillColor=#ffe6cc;strokeColor=#d79b00;" parent="1" vertex="1">
          <mxGeometry x="40" y="840" width="80" height="80" as="geometry" />
        </mxCell>
        <mxCell id="YAn88tCK4NmPO2DsNNYp-102" value="" style="rounded=0;whiteSpace=wrap;html=1;fillColor=#ffe6cc;strokeColor=#d79b00;" parent="1" vertex="1">
          <mxGeometry x="120" y="840" width="80" height="80" as="geometry" />
        </mxCell>
        <mxCell id="YAn88tCK4NmPO2DsNNYp-103" value="" style="rounded=0;whiteSpace=wrap;html=1;fillColor=#ffe6cc;strokeColor=#d79b00;" parent="1" vertex="1">
          <mxGeometry x="200" y="760" width="80" height="80" as="geometry" />
        </mxCell>
        <mxCell id="YAn88tCK4NmPO2DsNNYp-104" value="" style="rounded=0;whiteSpace=wrap;html=1;fillColor=#ffe6cc;strokeColor=#d79b00;" parent="1" vertex="1">
          <mxGeometry x="280" y="760" width="80" height="80" as="geometry" />
        </mxCell>
        <mxCell id="YAn88tCK4NmPO2DsNNYp-105" value="" style="rounded=0;whiteSpace=wrap;html=1;fillColor=#ffe6cc;strokeColor=#d79b00;" parent="1" vertex="1">
          <mxGeometry x="200" y="840" width="80" height="80" as="geometry" />
        </mxCell>
        <mxCell id="YAn88tCK4NmPO2DsNNYp-106" value="" style="rounded=0;whiteSpace=wrap;html=1;fillColor=#ffe6cc;strokeColor=#d79b00;" parent="1" vertex="1">
          <mxGeometry x="280" y="840" width="80" height="80" as="geometry" />
        </mxCell>
        <mxCell id="YAn88tCK4NmPO2DsNNYp-107" value="" style="rounded=0;whiteSpace=wrap;html=1;fillColor=#ffe6cc;strokeColor=#d79b00;" parent="1" vertex="1">
          <mxGeometry x="40" y="920" width="80" height="80" as="geometry" />
        </mxCell>
        <mxCell id="YAn88tCK4NmPO2DsNNYp-108" value="" style="rounded=0;whiteSpace=wrap;html=1;fillColor=#ffe6cc;strokeColor=#d79b00;" parent="1" vertex="1">
          <mxGeometry x="120" y="920" width="80" height="80" as="geometry" />
        </mxCell>
        <mxCell id="YAn88tCK4NmPO2DsNNYp-109" value="" style="rounded=0;whiteSpace=wrap;html=1;fillColor=#ffe6cc;strokeColor=#d79b00;" parent="1" vertex="1">
          <mxGeometry x="40" y="1000" width="80" height="80" as="geometry" />
        </mxCell>
        <mxCell id="YAn88tCK4NmPO2DsNNYp-110" value="" style="rounded=0;whiteSpace=wrap;html=1;fillColor=#ffe6cc;strokeColor=#d79b00;" parent="1" vertex="1">
          <mxGeometry x="120" y="1000" width="80" height="80" as="geometry" />
        </mxCell>
        <mxCell id="YAn88tCK4NmPO2DsNNYp-111" value="" style="rounded=0;whiteSpace=wrap;html=1;fillColor=#ffe6cc;strokeColor=#d79b00;" parent="1" vertex="1">
          <mxGeometry x="200" y="920" width="80" height="80" as="geometry" />
        </mxCell>
        <mxCell id="YAn88tCK4NmPO2DsNNYp-112" value="" style="rounded=0;whiteSpace=wrap;html=1;fillColor=#ffe6cc;strokeColor=#d79b00;" parent="1" vertex="1">
          <mxGeometry x="280" y="920" width="80" height="80" as="geometry" />
        </mxCell>
        <mxCell id="YAn88tCK4NmPO2DsNNYp-113" value="" style="rounded=0;whiteSpace=wrap;html=1;fillColor=#ffe6cc;strokeColor=#d79b00;" parent="1" vertex="1">
          <mxGeometry x="200" y="1000" width="80" height="80" as="geometry" />
        </mxCell>
        <mxCell id="YAn88tCK4NmPO2DsNNYp-114" value="" style="rounded=0;whiteSpace=wrap;html=1;fillColor=#ffe6cc;strokeColor=#d79b00;" parent="1" vertex="1">
          <mxGeometry x="280" y="1000" width="80" height="80" as="geometry" />
        </mxCell>
        <mxCell id="YAn88tCK4NmPO2DsNNYp-115" value="" style="rounded=0;whiteSpace=wrap;html=1;fillColor=#ffe6cc;strokeColor=#d79b00;" parent="1" vertex="1">
          <mxGeometry x="360" y="760" width="80" height="80" as="geometry" />
        </mxCell>
        <mxCell id="YAn88tCK4NmPO2DsNNYp-116" value="" style="rounded=0;whiteSpace=wrap;html=1;fillColor=#ffe6cc;strokeColor=#d79b00;" parent="1" vertex="1">
          <mxGeometry x="440" y="760" width="80" height="80" as="geometry" />
        </mxCell>
        <mxCell id="YAn88tCK4NmPO2DsNNYp-117" value="" style="rounded=0;whiteSpace=wrap;html=1;fillColor=#ffe6cc;strokeColor=#d79b00;" parent="1" vertex="1">
          <mxGeometry x="360" y="840" width="80" height="80" as="geometry" />
        </mxCell>
        <mxCell id="YAn88tCK4NmPO2DsNNYp-118" value="" style="rounded=0;whiteSpace=wrap;html=1;fillColor=#ffe6cc;strokeColor=#d79b00;" parent="1" vertex="1">
          <mxGeometry x="440" y="840" width="80" height="80" as="geometry" />
        </mxCell>
        <mxCell id="YAn88tCK4NmPO2DsNNYp-119" value="" style="rounded=0;whiteSpace=wrap;html=1;fillColor=#ffe6cc;strokeColor=#d79b00;" parent="1" vertex="1">
          <mxGeometry x="520" y="760" width="80" height="80" as="geometry" />
        </mxCell>
        <mxCell id="YAn88tCK4NmPO2DsNNYp-120" value="" style="rounded=0;whiteSpace=wrap;html=1;fillColor=#ffe6cc;strokeColor=#d79b00;" parent="1" vertex="1">
          <mxGeometry x="600" y="760" width="80" height="80" as="geometry" />
        </mxCell>
        <mxCell id="YAn88tCK4NmPO2DsNNYp-121" value="" style="rounded=0;whiteSpace=wrap;html=1;fillColor=#ffe6cc;strokeColor=#d79b00;" parent="1" vertex="1">
          <mxGeometry x="520" y="840" width="80" height="80" as="geometry" />
        </mxCell>
        <mxCell id="YAn88tCK4NmPO2DsNNYp-122" value="" style="rounded=0;whiteSpace=wrap;html=1;fillColor=#ffe6cc;strokeColor=#d79b00;" parent="1" vertex="1">
          <mxGeometry x="600" y="840" width="80" height="80" as="geometry" />
        </mxCell>
        <mxCell id="YAn88tCK4NmPO2DsNNYp-123" value="" style="rounded=0;whiteSpace=wrap;html=1;fillColor=#ffe6cc;strokeColor=#d79b00;" parent="1" vertex="1">
          <mxGeometry x="360" y="920" width="80" height="80" as="geometry" />
        </mxCell>
        <mxCell id="YAn88tCK4NmPO2DsNNYp-124" value="" style="rounded=0;whiteSpace=wrap;html=1;fillColor=#ffe6cc;strokeColor=#d79b00;" parent="1" vertex="1">
          <mxGeometry x="440" y="920" width="80" height="80" as="geometry" />
        </mxCell>
        <mxCell id="YAn88tCK4NmPO2DsNNYp-125" value="" style="rounded=0;whiteSpace=wrap;html=1;fillColor=#ffe6cc;strokeColor=#d79b00;" parent="1" vertex="1">
          <mxGeometry x="360" y="1000" width="80" height="80" as="geometry" />
        </mxCell>
        <mxCell id="YAn88tCK4NmPO2DsNNYp-126" value="" style="rounded=0;whiteSpace=wrap;html=1;fillColor=#ffe6cc;strokeColor=#d79b00;" parent="1" vertex="1">
          <mxGeometry x="440" y="1000" width="80" height="80" as="geometry" />
        </mxCell>
        <mxCell id="YAn88tCK4NmPO2DsNNYp-127" value="" style="rounded=0;whiteSpace=wrap;html=1;fillColor=#ffe6cc;strokeColor=#d79b00;" parent="1" vertex="1">
          <mxGeometry x="520" y="920" width="80" height="80" as="geometry" />
        </mxCell>
        <mxCell id="YAn88tCK4NmPO2DsNNYp-128" value="" style="rounded=0;whiteSpace=wrap;html=1;fillColor=#ffe6cc;strokeColor=#d79b00;" parent="1" vertex="1">
          <mxGeometry x="600" y="920" width="80" height="80" as="geometry" />
        </mxCell>
        <mxCell id="YAn88tCK4NmPO2DsNNYp-129" value="" style="rounded=0;whiteSpace=wrap;html=1;fillColor=#ffe6cc;strokeColor=#d79b00;" parent="1" vertex="1">
          <mxGeometry x="520" y="1000" width="80" height="80" as="geometry" />
        </mxCell>
        <mxCell id="YAn88tCK4NmPO2DsNNYp-130" value="" style="rounded=0;whiteSpace=wrap;html=1;fillColor=#ffe6cc;strokeColor=#d79b00;" parent="1" vertex="1">
          <mxGeometry x="600" y="1000" width="80" height="80" as="geometry" />
        </mxCell>
        <mxCell id="YAn88tCK4NmPO2DsNNYp-131" value="" style="rounded=0;whiteSpace=wrap;html=1;fillColor=#ffe6cc;strokeColor=#d79b00;" parent="1" vertex="1">
          <mxGeometry x="880" y="760" width="80" height="80" as="geometry" />
        </mxCell>
        <mxCell id="YAn88tCK4NmPO2DsNNYp-132" value="" style="rounded=0;whiteSpace=wrap;html=1;fillColor=#ffe6cc;strokeColor=#d79b00;" parent="1" vertex="1">
          <mxGeometry x="960" y="760" width="80" height="80" as="geometry" />
        </mxCell>
        <mxCell id="YAn88tCK4NmPO2DsNNYp-133" value="" style="rounded=0;whiteSpace=wrap;html=1;fillColor=#ffe6cc;strokeColor=#d79b00;" parent="1" vertex="1">
          <mxGeometry x="880" y="840" width="80" height="80" as="geometry" />
        </mxCell>
        <mxCell id="YAn88tCK4NmPO2DsNNYp-134" value="" style="rounded=0;whiteSpace=wrap;html=1;fillColor=#ffe6cc;strokeColor=#d79b00;" parent="1" vertex="1">
          <mxGeometry x="960" y="840" width="80" height="80" as="geometry" />
        </mxCell>
        <mxCell id="YAn88tCK4NmPO2DsNNYp-135" value="" style="rounded=0;whiteSpace=wrap;html=1;fillColor=#ffe6cc;strokeColor=#d79b00;" parent="1" vertex="1">
          <mxGeometry x="1040" y="760" width="80" height="80" as="geometry" />
        </mxCell>
        <mxCell id="YAn88tCK4NmPO2DsNNYp-136" value="" style="rounded=0;whiteSpace=wrap;html=1;fillColor=#ffe6cc;strokeColor=#d79b00;" parent="1" vertex="1">
          <mxGeometry x="1120" y="760" width="80" height="80" as="geometry" />
        </mxCell>
        <mxCell id="YAn88tCK4NmPO2DsNNYp-137" value="" style="rounded=0;whiteSpace=wrap;html=1;fillColor=#ffe6cc;strokeColor=#d79b00;" parent="1" vertex="1">
          <mxGeometry x="1040" y="840" width="80" height="80" as="geometry" />
        </mxCell>
        <mxCell id="YAn88tCK4NmPO2DsNNYp-138" value="" style="rounded=0;whiteSpace=wrap;html=1;fillColor=#ffe6cc;strokeColor=#d79b00;" parent="1" vertex="1">
          <mxGeometry x="1120" y="840" width="80" height="80" as="geometry" />
        </mxCell>
        <mxCell id="YAn88tCK4NmPO2DsNNYp-139" value="" style="rounded=0;whiteSpace=wrap;html=1;fillColor=#ffe6cc;strokeColor=#d79b00;" parent="1" vertex="1">
          <mxGeometry x="880" y="920" width="80" height="80" as="geometry" />
        </mxCell>
        <mxCell id="YAn88tCK4NmPO2DsNNYp-140" value="" style="rounded=0;whiteSpace=wrap;html=1;fillColor=#ffe6cc;strokeColor=#d79b00;" parent="1" vertex="1">
          <mxGeometry x="960" y="920" width="80" height="80" as="geometry" />
        </mxCell>
        <mxCell id="YAn88tCK4NmPO2DsNNYp-141" value="" style="rounded=0;whiteSpace=wrap;html=1;fillColor=#ffe6cc;strokeColor=#d79b00;" parent="1" vertex="1">
          <mxGeometry x="880" y="1000" width="80" height="80" as="geometry" />
        </mxCell>
        <mxCell id="YAn88tCK4NmPO2DsNNYp-142" value="" style="rounded=0;whiteSpace=wrap;html=1;fillColor=#ffe6cc;strokeColor=#d79b00;" parent="1" vertex="1">
          <mxGeometry x="960" y="1000" width="80" height="80" as="geometry" />
        </mxCell>
        <mxCell id="YAn88tCK4NmPO2DsNNYp-143" value="" style="rounded=0;whiteSpace=wrap;html=1;fillColor=#ffe6cc;strokeColor=#d79b00;" parent="1" vertex="1">
          <mxGeometry x="1040" y="920" width="80" height="80" as="geometry" />
        </mxCell>
        <mxCell id="YAn88tCK4NmPO2DsNNYp-144" value="" style="rounded=0;whiteSpace=wrap;html=1;fillColor=#ffe6cc;strokeColor=#d79b00;" parent="1" vertex="1">
          <mxGeometry x="1120" y="920" width="80" height="80" as="geometry" />
        </mxCell>
        <mxCell id="YAn88tCK4NmPO2DsNNYp-145" value="" style="rounded=0;whiteSpace=wrap;html=1;fillColor=#ffe6cc;strokeColor=#d79b00;" parent="1" vertex="1">
          <mxGeometry x="1040" y="1000" width="80" height="80" as="geometry" />
        </mxCell>
        <mxCell id="YAn88tCK4NmPO2DsNNYp-146" value="" style="rounded=0;whiteSpace=wrap;html=1;fillColor=#ffe6cc;strokeColor=#d79b00;" parent="1" vertex="1">
          <mxGeometry x="1120" y="1000" width="80" height="80" as="geometry" />
        </mxCell>
        <mxCell id="YAn88tCK4NmPO2DsNNYp-147" value="" style="rounded=0;whiteSpace=wrap;html=1;fillColor=#ffe6cc;strokeColor=#d79b00;" parent="1" vertex="1">
          <mxGeometry x="1200" y="760" width="80" height="80" as="geometry" />
        </mxCell>
        <mxCell id="YAn88tCK4NmPO2DsNNYp-148" value="" style="rounded=0;whiteSpace=wrap;html=1;fillColor=#ffe6cc;strokeColor=#d79b00;" parent="1" vertex="1">
          <mxGeometry x="1280" y="760" width="80" height="80" as="geometry" />
        </mxCell>
        <mxCell id="YAn88tCK4NmPO2DsNNYp-149" value="" style="rounded=0;whiteSpace=wrap;html=1;fillColor=#ffe6cc;strokeColor=#d79b00;" parent="1" vertex="1">
          <mxGeometry x="1200" y="840" width="80" height="80" as="geometry" />
        </mxCell>
        <mxCell id="YAn88tCK4NmPO2DsNNYp-150" value="" style="rounded=0;whiteSpace=wrap;html=1;fillColor=#ffe6cc;strokeColor=#d79b00;" parent="1" vertex="1">
          <mxGeometry x="1280" y="840" width="80" height="80" as="geometry" />
        </mxCell>
        <mxCell id="YAn88tCK4NmPO2DsNNYp-151" value="" style="rounded=0;whiteSpace=wrap;html=1;fillColor=#ffe6cc;strokeColor=#d79b00;" parent="1" vertex="1">
          <mxGeometry x="1360" y="760" width="80" height="80" as="geometry" />
        </mxCell>
        <mxCell id="YAn88tCK4NmPO2DsNNYp-152" value="" style="rounded=0;whiteSpace=wrap;html=1;fillColor=#ffe6cc;strokeColor=#d79b00;" parent="1" vertex="1">
          <mxGeometry x="1440" y="760" width="80" height="80" as="geometry" />
        </mxCell>
        <mxCell id="YAn88tCK4NmPO2DsNNYp-153" value="" style="rounded=0;whiteSpace=wrap;html=1;fillColor=#ffe6cc;strokeColor=#d79b00;" parent="1" vertex="1">
          <mxGeometry x="1360" y="840" width="80" height="80" as="geometry" />
        </mxCell>
        <mxCell id="YAn88tCK4NmPO2DsNNYp-154" value="" style="rounded=0;whiteSpace=wrap;html=1;fillColor=#ffe6cc;strokeColor=#d79b00;" parent="1" vertex="1">
          <mxGeometry x="1440" y="840" width="80" height="80" as="geometry" />
        </mxCell>
        <mxCell id="YAn88tCK4NmPO2DsNNYp-155" value="" style="rounded=0;whiteSpace=wrap;html=1;fillColor=#ffe6cc;strokeColor=#d79b00;" parent="1" vertex="1">
          <mxGeometry x="1200" y="920" width="80" height="80" as="geometry" />
        </mxCell>
        <mxCell id="YAn88tCK4NmPO2DsNNYp-156" value="" style="rounded=0;whiteSpace=wrap;html=1;fillColor=#ffe6cc;strokeColor=#d79b00;" parent="1" vertex="1">
          <mxGeometry x="1280" y="920" width="80" height="80" as="geometry" />
        </mxCell>
        <mxCell id="YAn88tCK4NmPO2DsNNYp-157" value="" style="rounded=0;whiteSpace=wrap;html=1;fillColor=#ffe6cc;strokeColor=#d79b00;" parent="1" vertex="1">
          <mxGeometry x="1200" y="1000" width="80" height="80" as="geometry" />
        </mxCell>
        <mxCell id="YAn88tCK4NmPO2DsNNYp-158" value="" style="rounded=0;whiteSpace=wrap;html=1;fillColor=#ffe6cc;strokeColor=#d79b00;" parent="1" vertex="1">
          <mxGeometry x="1280" y="1000" width="80" height="80" as="geometry" />
        </mxCell>
        <mxCell id="YAn88tCK4NmPO2DsNNYp-159" value="" style="rounded=0;whiteSpace=wrap;html=1;fillColor=#ffe6cc;strokeColor=#d79b00;" parent="1" vertex="1">
          <mxGeometry x="1360" y="920" width="80" height="80" as="geometry" />
        </mxCell>
        <mxCell id="YAn88tCK4NmPO2DsNNYp-160" value="" style="rounded=0;whiteSpace=wrap;html=1;fillColor=#ffe6cc;strokeColor=#d79b00;" parent="1" vertex="1">
          <mxGeometry x="1440" y="920" width="80" height="80" as="geometry" />
        </mxCell>
        <mxCell id="YAn88tCK4NmPO2DsNNYp-161" value="" style="rounded=0;whiteSpace=wrap;html=1;fillColor=#ffe6cc;strokeColor=#d79b00;" parent="1" vertex="1">
          <mxGeometry x="1360" y="1000" width="80" height="80" as="geometry" />
        </mxCell>
        <mxCell id="YAn88tCK4NmPO2DsNNYp-162" value="" style="rounded=0;whiteSpace=wrap;html=1;fillColor=#ffe6cc;strokeColor=#d79b00;" parent="1" vertex="1">
          <mxGeometry x="1440" y="1000" width="80" height="80" as="geometry" />
        </mxCell>
        <mxCell id="YAn88tCK4NmPO2DsNNYp-163" value="" style="endArrow=none;dashed=1;html=1;rounded=0;strokeWidth=6;dashPattern=1 4;fillColor=#ffe6cc;strokeColor=#d79b00;" parent="1" edge="1">
          <mxGeometry width="50" height="50" relative="1" as="geometry">
            <mxPoint x="720" y="920" as="sourcePoint" />
            <mxPoint x="840" y="920" as="targetPoint" />
          </mxGeometry>
        </mxCell>
        <mxCell id="YAn88tCK4NmPO2DsNNYp-164" value="" style="endArrow=none;dashed=1;html=1;rounded=0;strokeWidth=6;dashPattern=1 4;fillColor=#ffe6cc;strokeColor=#d79b00;" parent="1" edge="1">
          <mxGeometry width="50" height="50" relative="1" as="geometry">
            <mxPoint x="360" y="660" as="sourcePoint" />
            <mxPoint x="360" y="740" as="targetPoint" />
          </mxGeometry>
        </mxCell>
        <mxCell id="YAn88tCK4NmPO2DsNNYp-165" value="" style="endArrow=none;dashed=1;html=1;rounded=0;strokeWidth=6;dashPattern=1 4;fillColor=#ffe6cc;strokeColor=#d79b00;" parent="1" edge="1">
          <mxGeometry width="50" height="50" relative="1" as="geometry">
            <mxPoint x="1200" y="660" as="sourcePoint" />
            <mxPoint x="1200" y="740" as="targetPoint" />
          </mxGeometry>
        </mxCell>
        <mxCell id="YAn88tCK4NmPO2DsNNYp-166" value="" style="endArrow=none;dashed=1;html=1;rounded=0;strokeWidth=6;dashPattern=1 4;fillColor=#ffe6cc;strokeColor=#d79b00;" parent="1" edge="1">
          <mxGeometry width="50" height="50" relative="1" as="geometry">
            <mxPoint x="720" y="700" as="sourcePoint" />
            <mxPoint x="840" y="700" as="targetPoint" />
          </mxGeometry>
        </mxCell>
        <mxCell id="YAn88tCK4NmPO2DsNNYp-167" value="" style="endArrow=none;dashed=1;html=1;rounded=0;strokeWidth=6;dashPattern=1 4;fillColor=#ffe6cc;strokeColor=#d79b00;" parent="1" edge="1">
          <mxGeometry width="50" height="50" relative="1" as="geometry">
            <mxPoint x="780" y="660" as="sourcePoint" />
            <mxPoint x="780" y="740" as="targetPoint" />
          </mxGeometry>
        </mxCell>
        <mxCell id="YAn88tCK4NmPO2DsNNYp-168" value="" style="rounded=0;whiteSpace=wrap;html=1;fillColor=#dae8fc;strokeColor=#6c8ebf;" parent="1" vertex="1">
          <mxGeometry x="1720" y="-800" width="80" height="80" as="geometry" />
        </mxCell>
        <mxCell id="YAn88tCK4NmPO2DsNNYp-169" value="" style="rounded=0;whiteSpace=wrap;html=1;fillColor=#dae8fc;strokeColor=#6c8ebf;" parent="1" vertex="1">
          <mxGeometry x="1800" y="-800" width="80" height="80" as="geometry" />
        </mxCell>
        <mxCell id="YAn88tCK4NmPO2DsNNYp-170" value="" style="rounded=0;whiteSpace=wrap;html=1;fillColor=#dae8fc;strokeColor=#6c8ebf;" parent="1" vertex="1">
          <mxGeometry x="1720" y="-720" width="80" height="80" as="geometry" />
        </mxCell>
        <mxCell id="YAn88tCK4NmPO2DsNNYp-171" value="" style="rounded=0;whiteSpace=wrap;html=1;fillColor=#dae8fc;strokeColor=#6c8ebf;" parent="1" vertex="1">
          <mxGeometry x="1800" y="-720" width="80" height="80" as="geometry" />
        </mxCell>
        <mxCell id="YAn88tCK4NmPO2DsNNYp-172" value="" style="rounded=0;whiteSpace=wrap;html=1;fillColor=#dae8fc;strokeColor=#6c8ebf;" parent="1" vertex="1">
          <mxGeometry x="1880" y="-800" width="80" height="80" as="geometry" />
        </mxCell>
        <mxCell id="YAn88tCK4NmPO2DsNNYp-173" value="" style="rounded=0;whiteSpace=wrap;html=1;fillColor=#dae8fc;strokeColor=#6c8ebf;" parent="1" vertex="1">
          <mxGeometry x="1960" y="-800" width="80" height="80" as="geometry" />
        </mxCell>
        <mxCell id="YAn88tCK4NmPO2DsNNYp-174" value="" style="rounded=0;whiteSpace=wrap;html=1;fillColor=#dae8fc;strokeColor=#6c8ebf;" parent="1" vertex="1">
          <mxGeometry x="1880" y="-720" width="80" height="80" as="geometry" />
        </mxCell>
        <mxCell id="YAn88tCK4NmPO2DsNNYp-175" value="" style="rounded=0;whiteSpace=wrap;html=1;fillColor=#dae8fc;strokeColor=#6c8ebf;" parent="1" vertex="1">
          <mxGeometry x="1960" y="-720" width="80" height="80" as="geometry" />
        </mxCell>
        <mxCell id="YAn88tCK4NmPO2DsNNYp-176" value="" style="rounded=0;whiteSpace=wrap;html=1;fillColor=#dae8fc;strokeColor=#6c8ebf;" parent="1" vertex="1">
          <mxGeometry x="1720" y="-640" width="80" height="80" as="geometry" />
        </mxCell>
        <mxCell id="YAn88tCK4NmPO2DsNNYp-177" value="" style="rounded=0;whiteSpace=wrap;html=1;fillColor=#dae8fc;strokeColor=#6c8ebf;" parent="1" vertex="1">
          <mxGeometry x="1800" y="-640" width="80" height="80" as="geometry" />
        </mxCell>
        <mxCell id="YAn88tCK4NmPO2DsNNYp-178" value="" style="rounded=0;whiteSpace=wrap;html=1;fillColor=#dae8fc;strokeColor=#6c8ebf;" parent="1" vertex="1">
          <mxGeometry x="1720" y="-560" width="80" height="80" as="geometry" />
        </mxCell>
        <mxCell id="YAn88tCK4NmPO2DsNNYp-179" value="" style="rounded=0;whiteSpace=wrap;html=1;fillColor=#dae8fc;strokeColor=#6c8ebf;" parent="1" vertex="1">
          <mxGeometry x="1800" y="-560" width="80" height="80" as="geometry" />
        </mxCell>
        <mxCell id="YAn88tCK4NmPO2DsNNYp-180" value="" style="rounded=0;whiteSpace=wrap;html=1;fillColor=#dae8fc;strokeColor=#6c8ebf;" parent="1" vertex="1">
          <mxGeometry x="1880" y="-640" width="80" height="80" as="geometry" />
        </mxCell>
        <mxCell id="YAn88tCK4NmPO2DsNNYp-181" value="" style="rounded=0;whiteSpace=wrap;html=1;fillColor=#dae8fc;strokeColor=#6c8ebf;" parent="1" vertex="1">
          <mxGeometry x="1960" y="-640" width="80" height="80" as="geometry" />
        </mxCell>
        <mxCell id="YAn88tCK4NmPO2DsNNYp-182" value="" style="rounded=0;whiteSpace=wrap;html=1;fillColor=#dae8fc;strokeColor=#6c8ebf;" parent="1" vertex="1">
          <mxGeometry x="1880" y="-560" width="80" height="80" as="geometry" />
        </mxCell>
        <mxCell id="YAn88tCK4NmPO2DsNNYp-183" value="" style="rounded=0;whiteSpace=wrap;html=1;fillColor=#dae8fc;strokeColor=#6c8ebf;" parent="1" vertex="1">
          <mxGeometry x="1960" y="-560" width="80" height="80" as="geometry" />
        </mxCell>
        <mxCell id="YAn88tCK4NmPO2DsNNYp-184" value="" style="rounded=0;whiteSpace=wrap;html=1;fillColor=#dae8fc;strokeColor=#6c8ebf;" parent="1" vertex="1">
          <mxGeometry x="2200" y="-800" width="80" height="80" as="geometry" />
        </mxCell>
        <mxCell id="YAn88tCK4NmPO2DsNNYp-185" value="" style="rounded=0;whiteSpace=wrap;html=1;fillColor=#dae8fc;strokeColor=#6c8ebf;" parent="1" vertex="1">
          <mxGeometry x="2280" y="-800" width="80" height="80" as="geometry" />
        </mxCell>
        <mxCell id="YAn88tCK4NmPO2DsNNYp-186" value="" style="rounded=0;whiteSpace=wrap;html=1;fillColor=#dae8fc;strokeColor=#6c8ebf;" parent="1" vertex="1">
          <mxGeometry x="2200" y="-720" width="80" height="80" as="geometry" />
        </mxCell>
        <mxCell id="YAn88tCK4NmPO2DsNNYp-187" value="" style="rounded=0;whiteSpace=wrap;html=1;fillColor=#dae8fc;strokeColor=#6c8ebf;" parent="1" vertex="1">
          <mxGeometry x="2280" y="-720" width="80" height="80" as="geometry" />
        </mxCell>
        <mxCell id="YAn88tCK4NmPO2DsNNYp-188" value="" style="rounded=0;whiteSpace=wrap;html=1;fillColor=#dae8fc;strokeColor=#6c8ebf;" parent="1" vertex="1">
          <mxGeometry x="2360" y="-800" width="80" height="80" as="geometry" />
        </mxCell>
        <mxCell id="YAn88tCK4NmPO2DsNNYp-189" value="" style="rounded=0;whiteSpace=wrap;html=1;fillColor=#dae8fc;strokeColor=#6c8ebf;" parent="1" vertex="1">
          <mxGeometry x="2440" y="-800" width="80" height="80" as="geometry" />
        </mxCell>
        <mxCell id="YAn88tCK4NmPO2DsNNYp-190" value="" style="rounded=0;whiteSpace=wrap;html=1;fillColor=#dae8fc;strokeColor=#6c8ebf;" parent="1" vertex="1">
          <mxGeometry x="2360" y="-720" width="80" height="80" as="geometry" />
        </mxCell>
        <mxCell id="YAn88tCK4NmPO2DsNNYp-191" value="" style="rounded=0;whiteSpace=wrap;html=1;fillColor=#dae8fc;strokeColor=#6c8ebf;" parent="1" vertex="1">
          <mxGeometry x="2440" y="-720" width="80" height="80" as="geometry" />
        </mxCell>
        <mxCell id="YAn88tCK4NmPO2DsNNYp-192" value="" style="rounded=0;whiteSpace=wrap;html=1;fillColor=#dae8fc;strokeColor=#6c8ebf;" parent="1" vertex="1">
          <mxGeometry x="2200" y="-640" width="80" height="80" as="geometry" />
        </mxCell>
        <mxCell id="YAn88tCK4NmPO2DsNNYp-193" value="" style="rounded=0;whiteSpace=wrap;html=1;fillColor=#dae8fc;strokeColor=#6c8ebf;" parent="1" vertex="1">
          <mxGeometry x="2280" y="-640" width="80" height="80" as="geometry" />
        </mxCell>
        <mxCell id="YAn88tCK4NmPO2DsNNYp-194" value="" style="rounded=0;whiteSpace=wrap;html=1;fillColor=#dae8fc;strokeColor=#6c8ebf;" parent="1" vertex="1">
          <mxGeometry x="2200" y="-560" width="80" height="80" as="geometry" />
        </mxCell>
        <mxCell id="YAn88tCK4NmPO2DsNNYp-195" value="" style="rounded=0;whiteSpace=wrap;html=1;fillColor=#dae8fc;strokeColor=#6c8ebf;" parent="1" vertex="1">
          <mxGeometry x="2280" y="-560" width="80" height="80" as="geometry" />
        </mxCell>
        <mxCell id="YAn88tCK4NmPO2DsNNYp-196" value="" style="rounded=0;whiteSpace=wrap;html=1;fillColor=#dae8fc;strokeColor=#6c8ebf;" parent="1" vertex="1">
          <mxGeometry x="2360" y="-640" width="80" height="80" as="geometry" />
        </mxCell>
        <mxCell id="YAn88tCK4NmPO2DsNNYp-197" value="" style="rounded=0;whiteSpace=wrap;html=1;fillColor=#dae8fc;strokeColor=#6c8ebf;" parent="1" vertex="1">
          <mxGeometry x="2440" y="-640" width="80" height="80" as="geometry" />
        </mxCell>
        <mxCell id="YAn88tCK4NmPO2DsNNYp-198" value="" style="rounded=0;whiteSpace=wrap;html=1;fillColor=#dae8fc;strokeColor=#6c8ebf;" parent="1" vertex="1">
          <mxGeometry x="2360" y="-560" width="80" height="80" as="geometry" />
        </mxCell>
        <mxCell id="YAn88tCK4NmPO2DsNNYp-199" value="" style="rounded=0;whiteSpace=wrap;html=1;fillColor=#dae8fc;strokeColor=#6c8ebf;" parent="1" vertex="1">
          <mxGeometry x="2440" y="-560" width="80" height="80" as="geometry" />
        </mxCell>
        <mxCell id="YAn88tCK4NmPO2DsNNYp-200" value="" style="endArrow=none;dashed=1;html=1;rounded=0;strokeWidth=6;dashPattern=1 4;fillColor=#dae8fc;strokeColor=#6c8ebf;" parent="1" edge="1">
          <mxGeometry width="50" height="50" relative="1" as="geometry">
            <mxPoint x="2065" y="-641.05" as="sourcePoint" />
            <mxPoint x="2185" y="-641.05" as="targetPoint" />
          </mxGeometry>
        </mxCell>
        <mxCell id="YAn88tCK4NmPO2DsNNYp-201" value="" style="endArrow=none;dashed=1;html=1;rounded=0;strokeWidth=6;dashPattern=1 4;fillColor=#dae8fc;strokeColor=#6c8ebf;" parent="1" edge="1">
          <mxGeometry width="50" height="50" relative="1" as="geometry">
            <mxPoint x="1880" y="-400" as="sourcePoint" />
            <mxPoint x="1880" y="-320" as="targetPoint" />
          </mxGeometry>
        </mxCell>
        <mxCell id="YAn88tCK4NmPO2DsNNYp-202" value="" style="endArrow=none;dashed=1;html=1;rounded=0;strokeWidth=6;dashPattern=1 4;fillColor=#dae8fc;strokeColor=#6c8ebf;" parent="1" edge="1">
          <mxGeometry width="50" height="50" relative="1" as="geometry">
            <mxPoint x="2360" y="-400" as="sourcePoint" />
            <mxPoint x="2360" y="-320" as="targetPoint" />
          </mxGeometry>
        </mxCell>
        <mxCell id="YAn88tCK4NmPO2DsNNYp-203" value="" style="rounded=0;whiteSpace=wrap;html=1;fillColor=#f8cecc;strokeColor=#b85450;" parent="1" vertex="1">
          <mxGeometry x="1720" y="760" width="80" height="80" as="geometry" />
        </mxCell>
        <mxCell id="YAn88tCK4NmPO2DsNNYp-204" value="" style="rounded=0;whiteSpace=wrap;html=1;fillColor=#f8cecc;strokeColor=#b85450;" parent="1" vertex="1">
          <mxGeometry x="1800" y="760" width="80" height="80" as="geometry" />
        </mxCell>
        <mxCell id="YAn88tCK4NmPO2DsNNYp-205" value="" style="rounded=0;whiteSpace=wrap;html=1;fillColor=#f8cecc;strokeColor=#b85450;" parent="1" vertex="1">
          <mxGeometry x="1720" y="840" width="80" height="80" as="geometry" />
        </mxCell>
        <mxCell id="YAn88tCK4NmPO2DsNNYp-206" value="" style="rounded=0;whiteSpace=wrap;html=1;fillColor=#f8cecc;strokeColor=#b85450;" parent="1" vertex="1">
          <mxGeometry x="1800" y="840" width="80" height="80" as="geometry" />
        </mxCell>
        <mxCell id="YAn88tCK4NmPO2DsNNYp-207" value="" style="rounded=0;whiteSpace=wrap;html=1;fillColor=#f8cecc;strokeColor=#b85450;" parent="1" vertex="1">
          <mxGeometry x="1880" y="760" width="80" height="80" as="geometry" />
        </mxCell>
        <mxCell id="YAn88tCK4NmPO2DsNNYp-208" value="" style="rounded=0;whiteSpace=wrap;html=1;fillColor=#f8cecc;strokeColor=#b85450;" parent="1" vertex="1">
          <mxGeometry x="1960" y="760" width="80" height="80" as="geometry" />
        </mxCell>
        <mxCell id="YAn88tCK4NmPO2DsNNYp-209" value="" style="rounded=0;whiteSpace=wrap;html=1;fillColor=#f8cecc;strokeColor=#b85450;" parent="1" vertex="1">
          <mxGeometry x="1880" y="840" width="80" height="80" as="geometry" />
        </mxCell>
        <mxCell id="YAn88tCK4NmPO2DsNNYp-210" value="" style="rounded=0;whiteSpace=wrap;html=1;fillColor=#f8cecc;strokeColor=#b85450;" parent="1" vertex="1">
          <mxGeometry x="1960" y="840" width="80" height="80" as="geometry" />
        </mxCell>
        <mxCell id="YAn88tCK4NmPO2DsNNYp-211" value="" style="rounded=0;whiteSpace=wrap;html=1;fillColor=#f8cecc;strokeColor=#b85450;" parent="1" vertex="1">
          <mxGeometry x="1720" y="920" width="80" height="80" as="geometry" />
        </mxCell>
        <mxCell id="YAn88tCK4NmPO2DsNNYp-212" value="" style="rounded=0;whiteSpace=wrap;html=1;fillColor=#f8cecc;strokeColor=#b85450;" parent="1" vertex="1">
          <mxGeometry x="1800" y="920" width="80" height="80" as="geometry" />
        </mxCell>
        <mxCell id="YAn88tCK4NmPO2DsNNYp-213" value="" style="rounded=0;whiteSpace=wrap;html=1;fillColor=#f8cecc;strokeColor=#b85450;" parent="1" vertex="1">
          <mxGeometry x="1720" y="1000" width="80" height="80" as="geometry" />
        </mxCell>
        <mxCell id="YAn88tCK4NmPO2DsNNYp-214" value="" style="rounded=0;whiteSpace=wrap;html=1;fillColor=#f8cecc;strokeColor=#b85450;" parent="1" vertex="1">
          <mxGeometry x="1800" y="1000" width="80" height="80" as="geometry" />
        </mxCell>
        <mxCell id="YAn88tCK4NmPO2DsNNYp-215" value="" style="rounded=0;whiteSpace=wrap;html=1;fillColor=#f8cecc;strokeColor=#b85450;" parent="1" vertex="1">
          <mxGeometry x="1880" y="920" width="80" height="80" as="geometry" />
        </mxCell>
        <mxCell id="YAn88tCK4NmPO2DsNNYp-216" value="" style="rounded=0;whiteSpace=wrap;html=1;fillColor=#f8cecc;strokeColor=#b85450;" parent="1" vertex="1">
          <mxGeometry x="1960" y="920" width="80" height="80" as="geometry" />
        </mxCell>
        <mxCell id="YAn88tCK4NmPO2DsNNYp-217" value="" style="rounded=0;whiteSpace=wrap;html=1;fillColor=#f8cecc;strokeColor=#b85450;" parent="1" vertex="1">
          <mxGeometry x="1880" y="1000" width="80" height="80" as="geometry" />
        </mxCell>
        <mxCell id="YAn88tCK4NmPO2DsNNYp-218" value="" style="rounded=0;whiteSpace=wrap;html=1;fillColor=#f8cecc;strokeColor=#b85450;" parent="1" vertex="1">
          <mxGeometry x="1960" y="1000" width="80" height="80" as="geometry" />
        </mxCell>
        <mxCell id="YAn88tCK4NmPO2DsNNYp-219" value="" style="rounded=0;whiteSpace=wrap;html=1;fillColor=#f8cecc;strokeColor=#b85450;" parent="1" vertex="1">
          <mxGeometry x="2200" y="760" width="80" height="80" as="geometry" />
        </mxCell>
        <mxCell id="YAn88tCK4NmPO2DsNNYp-220" value="" style="rounded=0;whiteSpace=wrap;html=1;fillColor=#f8cecc;strokeColor=#b85450;" parent="1" vertex="1">
          <mxGeometry x="2280" y="760" width="80" height="80" as="geometry" />
        </mxCell>
        <mxCell id="YAn88tCK4NmPO2DsNNYp-221" value="" style="rounded=0;whiteSpace=wrap;html=1;fillColor=#f8cecc;strokeColor=#b85450;" parent="1" vertex="1">
          <mxGeometry x="2200" y="840" width="80" height="80" as="geometry" />
        </mxCell>
        <mxCell id="YAn88tCK4NmPO2DsNNYp-222" value="" style="rounded=0;whiteSpace=wrap;html=1;fillColor=#f8cecc;strokeColor=#b85450;" parent="1" vertex="1">
          <mxGeometry x="2280" y="840" width="80" height="80" as="geometry" />
        </mxCell>
        <mxCell id="YAn88tCK4NmPO2DsNNYp-223" value="" style="rounded=0;whiteSpace=wrap;html=1;fillColor=#f8cecc;strokeColor=#b85450;" parent="1" vertex="1">
          <mxGeometry x="2360" y="760" width="80" height="80" as="geometry" />
        </mxCell>
        <mxCell id="YAn88tCK4NmPO2DsNNYp-224" value="" style="rounded=0;whiteSpace=wrap;html=1;fillColor=#f8cecc;strokeColor=#b85450;" parent="1" vertex="1">
          <mxGeometry x="2440" y="760" width="80" height="80" as="geometry" />
        </mxCell>
        <mxCell id="YAn88tCK4NmPO2DsNNYp-225" value="" style="rounded=0;whiteSpace=wrap;html=1;fillColor=#f8cecc;strokeColor=#b85450;" parent="1" vertex="1">
          <mxGeometry x="2360" y="840" width="80" height="80" as="geometry" />
        </mxCell>
        <mxCell id="YAn88tCK4NmPO2DsNNYp-226" value="" style="rounded=0;whiteSpace=wrap;html=1;fillColor=#f8cecc;strokeColor=#b85450;" parent="1" vertex="1">
          <mxGeometry x="2440" y="840" width="80" height="80" as="geometry" />
        </mxCell>
        <mxCell id="YAn88tCK4NmPO2DsNNYp-227" value="" style="rounded=0;whiteSpace=wrap;html=1;fillColor=#f8cecc;strokeColor=#b85450;" parent="1" vertex="1">
          <mxGeometry x="2200" y="920" width="80" height="80" as="geometry" />
        </mxCell>
        <mxCell id="YAn88tCK4NmPO2DsNNYp-228" value="" style="rounded=0;whiteSpace=wrap;html=1;fillColor=#f8cecc;strokeColor=#b85450;" parent="1" vertex="1">
          <mxGeometry x="2280" y="920" width="80" height="80" as="geometry" />
        </mxCell>
        <mxCell id="YAn88tCK4NmPO2DsNNYp-229" value="" style="rounded=0;whiteSpace=wrap;html=1;fillColor=#f8cecc;strokeColor=#b85450;" parent="1" vertex="1">
          <mxGeometry x="2200" y="1000" width="80" height="80" as="geometry" />
        </mxCell>
        <mxCell id="YAn88tCK4NmPO2DsNNYp-230" value="" style="rounded=0;whiteSpace=wrap;html=1;fillColor=#f8cecc;strokeColor=#b85450;" parent="1" vertex="1">
          <mxGeometry x="2280" y="1000" width="80" height="80" as="geometry" />
        </mxCell>
        <mxCell id="YAn88tCK4NmPO2DsNNYp-231" value="" style="rounded=0;whiteSpace=wrap;html=1;fillColor=#f8cecc;strokeColor=#b85450;" parent="1" vertex="1">
          <mxGeometry x="2360" y="920" width="80" height="80" as="geometry" />
        </mxCell>
        <mxCell id="YAn88tCK4NmPO2DsNNYp-232" value="" style="rounded=0;whiteSpace=wrap;html=1;fillColor=#f8cecc;strokeColor=#b85450;" parent="1" vertex="1">
          <mxGeometry x="2440" y="920" width="80" height="80" as="geometry" />
        </mxCell>
        <mxCell id="YAn88tCK4NmPO2DsNNYp-233" value="" style="rounded=0;whiteSpace=wrap;html=1;fillColor=#f8cecc;strokeColor=#b85450;" parent="1" vertex="1">
          <mxGeometry x="2360" y="1000" width="80" height="80" as="geometry" />
        </mxCell>
        <mxCell id="YAn88tCK4NmPO2DsNNYp-234" value="" style="rounded=0;whiteSpace=wrap;html=1;fillColor=#f8cecc;strokeColor=#b85450;" parent="1" vertex="1">
          <mxGeometry x="2440" y="1000" width="80" height="80" as="geometry" />
        </mxCell>
        <mxCell id="YAn88tCK4NmPO2DsNNYp-235" value="" style="endArrow=none;dashed=1;html=1;rounded=0;strokeWidth=6;dashPattern=1 4;fillColor=#f8cecc;strokeColor=#b85450;" parent="1" edge="1">
          <mxGeometry width="50" height="50" relative="1" as="geometry">
            <mxPoint x="2065" y="918.95" as="sourcePoint" />
            <mxPoint x="2185" y="918.95" as="targetPoint" />
          </mxGeometry>
        </mxCell>
        <mxCell id="YAn88tCK4NmPO2DsNNYp-236" value="" style="rounded=0;whiteSpace=wrap;html=1;fillColor=#f8cecc;strokeColor=#b85450;" parent="1" vertex="1">
          <mxGeometry x="1720" y="320" width="80" height="80" as="geometry" />
        </mxCell>
        <mxCell id="YAn88tCK4NmPO2DsNNYp-237" value="" style="rounded=0;whiteSpace=wrap;html=1;fillColor=#f8cecc;strokeColor=#b85450;" parent="1" vertex="1">
          <mxGeometry x="1800" y="320" width="80" height="80" as="geometry" />
        </mxCell>
        <mxCell id="YAn88tCK4NmPO2DsNNYp-238" value="" style="rounded=0;whiteSpace=wrap;html=1;fillColor=#f8cecc;strokeColor=#b85450;" parent="1" vertex="1">
          <mxGeometry x="1720" y="400" width="80" height="80" as="geometry" />
        </mxCell>
        <mxCell id="YAn88tCK4NmPO2DsNNYp-239" value="" style="rounded=0;whiteSpace=wrap;html=1;fillColor=#f8cecc;strokeColor=#b85450;" parent="1" vertex="1">
          <mxGeometry x="1800" y="400" width="80" height="80" as="geometry" />
        </mxCell>
        <mxCell id="YAn88tCK4NmPO2DsNNYp-240" value="" style="rounded=0;whiteSpace=wrap;html=1;fillColor=#f8cecc;strokeColor=#b85450;" parent="1" vertex="1">
          <mxGeometry x="1880" y="320" width="80" height="80" as="geometry" />
        </mxCell>
        <mxCell id="YAn88tCK4NmPO2DsNNYp-241" value="" style="rounded=0;whiteSpace=wrap;html=1;fillColor=#f8cecc;strokeColor=#b85450;" parent="1" vertex="1">
          <mxGeometry x="1960" y="320" width="80" height="80" as="geometry" />
        </mxCell>
        <mxCell id="YAn88tCK4NmPO2DsNNYp-242" value="" style="rounded=0;whiteSpace=wrap;html=1;fillColor=#f8cecc;strokeColor=#b85450;" parent="1" vertex="1">
          <mxGeometry x="1880" y="400" width="80" height="80" as="geometry" />
        </mxCell>
        <mxCell id="YAn88tCK4NmPO2DsNNYp-243" value="" style="rounded=0;whiteSpace=wrap;html=1;fillColor=#f8cecc;strokeColor=#b85450;" parent="1" vertex="1">
          <mxGeometry x="1960" y="400" width="80" height="80" as="geometry" />
        </mxCell>
        <mxCell id="YAn88tCK4NmPO2DsNNYp-244" value="" style="rounded=0;whiteSpace=wrap;html=1;fillColor=#f8cecc;strokeColor=#b85450;" parent="1" vertex="1">
          <mxGeometry x="1720" y="480" width="80" height="80" as="geometry" />
        </mxCell>
        <mxCell id="YAn88tCK4NmPO2DsNNYp-245" value="" style="rounded=0;whiteSpace=wrap;html=1;fillColor=#f8cecc;strokeColor=#b85450;" parent="1" vertex="1">
          <mxGeometry x="1800" y="480" width="80" height="80" as="geometry" />
        </mxCell>
        <mxCell id="YAn88tCK4NmPO2DsNNYp-246" value="" style="rounded=0;whiteSpace=wrap;html=1;fillColor=#f8cecc;strokeColor=#b85450;" parent="1" vertex="1">
          <mxGeometry x="1720" y="560" width="80" height="80" as="geometry" />
        </mxCell>
        <mxCell id="YAn88tCK4NmPO2DsNNYp-247" value="" style="rounded=0;whiteSpace=wrap;html=1;fillColor=#f8cecc;strokeColor=#b85450;" parent="1" vertex="1">
          <mxGeometry x="1800" y="560" width="80" height="80" as="geometry" />
        </mxCell>
        <mxCell id="YAn88tCK4NmPO2DsNNYp-248" value="" style="rounded=0;whiteSpace=wrap;html=1;fillColor=#f8cecc;strokeColor=#b85450;" parent="1" vertex="1">
          <mxGeometry x="1880" y="480" width="80" height="80" as="geometry" />
        </mxCell>
        <mxCell id="YAn88tCK4NmPO2DsNNYp-249" value="" style="rounded=0;whiteSpace=wrap;html=1;fillColor=#f8cecc;strokeColor=#b85450;" parent="1" vertex="1">
          <mxGeometry x="1960" y="480" width="80" height="80" as="geometry" />
        </mxCell>
        <mxCell id="YAn88tCK4NmPO2DsNNYp-250" value="" style="rounded=0;whiteSpace=wrap;html=1;fillColor=#f8cecc;strokeColor=#b85450;" parent="1" vertex="1">
          <mxGeometry x="1880" y="560" width="80" height="80" as="geometry" />
        </mxCell>
        <mxCell id="YAn88tCK4NmPO2DsNNYp-251" value="" style="rounded=0;whiteSpace=wrap;html=1;fillColor=#f8cecc;strokeColor=#b85450;" parent="1" vertex="1">
          <mxGeometry x="1960" y="560" width="80" height="80" as="geometry" />
        </mxCell>
        <mxCell id="YAn88tCK4NmPO2DsNNYp-252" value="" style="rounded=0;whiteSpace=wrap;html=1;fillColor=#f8cecc;strokeColor=#b85450;" parent="1" vertex="1">
          <mxGeometry x="2200" y="320" width="80" height="80" as="geometry" />
        </mxCell>
        <mxCell id="YAn88tCK4NmPO2DsNNYp-253" value="" style="rounded=0;whiteSpace=wrap;html=1;fillColor=#f8cecc;strokeColor=#b85450;" parent="1" vertex="1">
          <mxGeometry x="2280" y="320" width="80" height="80" as="geometry" />
        </mxCell>
        <mxCell id="YAn88tCK4NmPO2DsNNYp-254" value="" style="rounded=0;whiteSpace=wrap;html=1;fillColor=#f8cecc;strokeColor=#b85450;" parent="1" vertex="1">
          <mxGeometry x="2200" y="400" width="80" height="80" as="geometry" />
        </mxCell>
        <mxCell id="YAn88tCK4NmPO2DsNNYp-255" value="" style="rounded=0;whiteSpace=wrap;html=1;fillColor=#f8cecc;strokeColor=#b85450;" parent="1" vertex="1">
          <mxGeometry x="2280" y="400" width="80" height="80" as="geometry" />
        </mxCell>
        <mxCell id="YAn88tCK4NmPO2DsNNYp-256" value="" style="rounded=0;whiteSpace=wrap;html=1;fillColor=#f8cecc;strokeColor=#b85450;" parent="1" vertex="1">
          <mxGeometry x="2360" y="320" width="80" height="80" as="geometry" />
        </mxCell>
        <mxCell id="YAn88tCK4NmPO2DsNNYp-257" value="" style="rounded=0;whiteSpace=wrap;html=1;fillColor=#f8cecc;strokeColor=#b85450;" parent="1" vertex="1">
          <mxGeometry x="2440" y="320" width="80" height="80" as="geometry" />
        </mxCell>
        <mxCell id="YAn88tCK4NmPO2DsNNYp-258" value="" style="rounded=0;whiteSpace=wrap;html=1;fillColor=#f8cecc;strokeColor=#b85450;" parent="1" vertex="1">
          <mxGeometry x="2360" y="400" width="80" height="80" as="geometry" />
        </mxCell>
        <mxCell id="YAn88tCK4NmPO2DsNNYp-259" value="" style="rounded=0;whiteSpace=wrap;html=1;fillColor=#f8cecc;strokeColor=#b85450;" parent="1" vertex="1">
          <mxGeometry x="2440" y="400" width="80" height="80" as="geometry" />
        </mxCell>
        <mxCell id="YAn88tCK4NmPO2DsNNYp-260" value="" style="rounded=0;whiteSpace=wrap;html=1;fillColor=#f8cecc;strokeColor=#b85450;" parent="1" vertex="1">
          <mxGeometry x="2200" y="480" width="80" height="80" as="geometry" />
        </mxCell>
        <mxCell id="YAn88tCK4NmPO2DsNNYp-261" value="" style="rounded=0;whiteSpace=wrap;html=1;fillColor=#f8cecc;strokeColor=#b85450;" parent="1" vertex="1">
          <mxGeometry x="2280" y="480" width="80" height="80" as="geometry" />
        </mxCell>
        <mxCell id="YAn88tCK4NmPO2DsNNYp-262" value="" style="rounded=0;whiteSpace=wrap;html=1;fillColor=#f8cecc;strokeColor=#b85450;" parent="1" vertex="1">
          <mxGeometry x="2200" y="560" width="80" height="80" as="geometry" />
        </mxCell>
        <mxCell id="YAn88tCK4NmPO2DsNNYp-263" value="" style="rounded=0;whiteSpace=wrap;html=1;fillColor=#f8cecc;strokeColor=#b85450;" parent="1" vertex="1">
          <mxGeometry x="2280" y="560" width="80" height="80" as="geometry" />
        </mxCell>
        <mxCell id="YAn88tCK4NmPO2DsNNYp-264" value="" style="rounded=0;whiteSpace=wrap;html=1;fillColor=#f8cecc;strokeColor=#b85450;" parent="1" vertex="1">
          <mxGeometry x="2360" y="480" width="80" height="80" as="geometry" />
        </mxCell>
        <mxCell id="YAn88tCK4NmPO2DsNNYp-265" value="" style="rounded=0;whiteSpace=wrap;html=1;fillColor=#f8cecc;strokeColor=#b85450;" parent="1" vertex="1">
          <mxGeometry x="2440" y="480" width="80" height="80" as="geometry" />
        </mxCell>
        <mxCell id="YAn88tCK4NmPO2DsNNYp-266" value="" style="rounded=0;whiteSpace=wrap;html=1;fillColor=#f8cecc;strokeColor=#b85450;" parent="1" vertex="1">
          <mxGeometry x="2360" y="560" width="80" height="80" as="geometry" />
        </mxCell>
        <mxCell id="YAn88tCK4NmPO2DsNNYp-267" value="" style="rounded=0;whiteSpace=wrap;html=1;fillColor=#f8cecc;strokeColor=#b85450;" parent="1" vertex="1">
          <mxGeometry x="2440" y="560" width="80" height="80" as="geometry" />
        </mxCell>
        <mxCell id="YAn88tCK4NmPO2DsNNYp-268" value="" style="endArrow=none;dashed=1;html=1;rounded=0;strokeWidth=6;dashPattern=1 4;fillColor=#f8cecc;strokeColor=#b85450;" parent="1" edge="1">
          <mxGeometry width="50" height="50" relative="1" as="geometry">
            <mxPoint x="2065" y="478.95000000000005" as="sourcePoint" />
            <mxPoint x="2185" y="478.95000000000005" as="targetPoint" />
          </mxGeometry>
        </mxCell>
        <mxCell id="YAn88tCK4NmPO2DsNNYp-269" value="" style="endArrow=none;dashed=1;html=1;rounded=0;strokeWidth=6;dashPattern=1 4;fillColor=#f8cecc;strokeColor=#b85450;" parent="1" edge="1">
          <mxGeometry width="50" height="50" relative="1" as="geometry">
            <mxPoint x="1880" y="660" as="sourcePoint" />
            <mxPoint x="1880" y="740" as="targetPoint" />
          </mxGeometry>
        </mxCell>
        <mxCell id="YAn88tCK4NmPO2DsNNYp-270" value="" style="endArrow=none;dashed=1;html=1;rounded=0;strokeWidth=6;dashPattern=1 4;fillColor=#f8cecc;strokeColor=#b85450;" parent="1" edge="1">
          <mxGeometry width="50" height="50" relative="1" as="geometry">
            <mxPoint x="2360" y="660" as="sourcePoint" />
            <mxPoint x="2360" y="740" as="targetPoint" />
          </mxGeometry>
        </mxCell>
        <mxCell id="YAn88tCK4NmPO2DsNNYp-271" value="" style="shape=flexArrow;endArrow=classic;startArrow=classic;html=1;rounded=0;" parent="1" edge="1">
          <mxGeometry width="100" height="100" relative="1" as="geometry">
            <mxPoint x="1640" y="1080" as="sourcePoint" />
            <mxPoint x="1640" y="320" as="targetPoint" />
          </mxGeometry>
        </mxCell>
        <mxCell id="YAn88tCK4NmPO2DsNNYp-272" value="&lt;font style=&quot;font-size: 40px;&quot;&gt;Input Channel&lt;/font&gt;&lt;div style=&quot;font-size: 40px;&quot;&gt;&lt;font style=&quot;font-size: 40px;&quot;&gt;C&lt;/font&gt;&lt;/div&gt;" style="edgeLabel;html=1;align=center;verticalAlign=middle;resizable=0;points=[];" parent="YAn88tCK4NmPO2DsNNYp-271" vertex="1" connectable="0">
          <mxGeometry x="-0.019" y="4" relative="1" as="geometry">
            <mxPoint y="1" as="offset" />
          </mxGeometry>
        </mxCell>
        <mxCell id="YAn88tCK4NmPO2DsNNYp-274" value="" style="shape=flexArrow;endArrow=classic;startArrow=classic;html=1;rounded=0;" parent="1" edge="1">
          <mxGeometry width="100" height="100" relative="1" as="geometry">
            <mxPoint x="1640" y="80" as="sourcePoint" />
            <mxPoint x="1650" y="-800" as="targetPoint" />
          </mxGeometry>
        </mxCell>
        <mxCell id="YAn88tCK4NmPO2DsNNYp-275" value="&lt;font style=&quot;font-size: 40px;&quot;&gt;N * H * W&lt;/font&gt;" style="edgeLabel;html=1;align=center;verticalAlign=middle;resizable=0;points=[];" parent="YAn88tCK4NmPO2DsNNYp-274" vertex="1" connectable="0">
          <mxGeometry x="-0.019" y="4" relative="1" as="geometry">
            <mxPoint y="1" as="offset" />
          </mxGeometry>
        </mxCell>
        <mxCell id="YAn88tCK4NmPO2DsNNYp-277" value="" style="shape=flexArrow;endArrow=classic;startArrow=classic;html=1;rounded=0;" parent="1" edge="1">
          <mxGeometry width="100" height="100" relative="1" as="geometry">
            <mxPoint x="1520" y="240" as="sourcePoint" />
            <mxPoint x="40" y="240" as="targetPoint" />
          </mxGeometry>
        </mxCell>
        <mxCell id="YAn88tCK4NmPO2DsNNYp-278" value="&lt;font style=&quot;font-size: 40px;&quot;&gt;N * H * W&lt;/font&gt;" style="edgeLabel;html=1;align=center;verticalAlign=middle;resizable=0;points=[];" parent="YAn88tCK4NmPO2DsNNYp-277" vertex="1" connectable="0">
          <mxGeometry x="-0.019" y="4" relative="1" as="geometry">
            <mxPoint y="1" as="offset" />
          </mxGeometry>
        </mxCell>
        <mxCell id="YAn88tCK4NmPO2DsNNYp-280" value="" style="shape=flexArrow;endArrow=classic;startArrow=classic;html=1;rounded=0;" parent="1" edge="1">
          <mxGeometry width="100" height="100" relative="1" as="geometry">
            <mxPoint x="2520" y="240" as="sourcePoint" />
            <mxPoint x="1720" y="240" as="targetPoint" />
          </mxGeometry>
        </mxCell>
        <mxCell id="YAn88tCK4NmPO2DsNNYp-281" value="&lt;span style=&quot;font-size: 40px;&quot;&gt;Ouput Channel&lt;/span&gt;&lt;div&gt;&lt;span style=&quot;font-size: 40px;&quot;&gt;M&lt;/span&gt;&lt;/div&gt;" style="edgeLabel;html=1;align=center;verticalAlign=middle;resizable=0;points=[];" parent="YAn88tCK4NmPO2DsNNYp-280" vertex="1" connectable="0">
          <mxGeometry x="-0.019" y="4" relative="1" as="geometry">
            <mxPoint y="1" as="offset" />
          </mxGeometry>
        </mxCell>
      </root>
    </mxGraphModel>
  </diagram>
</mxfile>
